<?xml version="1.0" encoding="UTF-8"?>
<svg xmlns="http://www.w3.org/2000/svg" width="18" height="18" viewBox="0 0 18 18"><path fill="#FFF" d="M14.76 5.58v10.26H3.24V2.16h8.208l3.312 3.42z"/><path fill="#F9FAFA" d="M14.76 5.58v10.26H3.24V2.16h8.208l3.312 3.42z"/><path fill="#FFF" d="M11.232 2.34l.287 3.6 3.236-.36-3.523-3.24z"/><linearGradient id="a" gradientUnits="userSpaceOnUse" x1="40123.656" y1="-57285.73" x2="40498.656" y2="-57660.727" gradientTransform="matrix(.036 0 0 -.036 -1443.122 -2059.116)"><stop offset="0" stop-color="#ccc"/><stop offset="1" stop-color="#b3b3b3"/></linearGradient><path fill="url(#a)" d="M11.613 1.794L2.7 1.8v14.4h12.6V5.508l-3.687-3.714zm2.686 3.714h-2.671l-.011-2.689 2.682 2.689zm.281 9.972H3.42V2.52h7.38v3.852h3.78v9.108z"/><linearGradient id="b" gradientUnits="userSpaceOnUse" x1="26890.344" y1="-38458.492" x2="27141.273" y2="-38709.422" gradientTransform="matrix(.032 0 0 -.032 -857.38 -1223.952)"><stop offset="0" stop-color="#196b99"/><stop offset="1" stop-color="#0d5c7f"/></linearGradient><path fill="url(#b)" d="M13.25 11.881a1.83 1.83 0 0 1-1.831 1.83H2.831A1.83 1.83 0 0 1 1 11.881V9.588a1.83 1.83 0 0 1 1.831-1.831h8.588a1.83 1.83 0 0 1 1.831 1.831v2.293z"/><g fill="#FFF"><path d="M2.124 12.54V8.875h1.187c.45 0 .743.018.88.055a.96.96 0 0 1 .527.358c.142.185.212.422.212.714 0 .226-.041.414-.123.567a1.027 1.027 0 0 1-.311.36 1.091 1.091 0 0 1-.384.175 4.212 4.212 0 0 1-.767.053h-.481v1.382h-.74zm.74-3.044v1.039h.405c.292 0 .487-.02.585-.057a.487.487 0 0 0 .315-.465.473.473 0 0 0-.118-.33.503.503 0 0 0-.298-.162 3.487 3.487 0 0 0-.532-.025h-.357zM5.541 12.54V8.875h.74v1.443h1.45V8.875h.74v3.665H7.73v-1.603H6.28v1.603h-.739zM9.234 12.54V8.875h1.188c.449 0 .743.018.879.055.21.055.387.174.527.358.142.185.213.422.213.714 0 .226-.041.414-.122.567a1.03 1.03 0 0 1-.312.36 1.091 1.091 0 0 1-.384.175 4.216 4.216 0 0 1-.768.053h-.48v1.382h-.741zm.741-3.044v1.039h.404c.291 0 .486-.02.585-.057a.482.482 0 0 0 .314-.465.468.468 0 0 0-.117-.33.502.502 0 0 0-.297-.163 3.576 3.576 0 0 0-.533-.024h-.356z"/></g></svg>