<svg xmlns="http://www.w3.org/2000/svg" width="18" height="18"><defs><linearGradient id="a" x1="23783.6" y1="-33989.28" x2="24158.6" y2="-34364.28" gradientTransform="matrix(.04 0 0 -.04 -854.88 -1220.44)"><stop offset="0" stop-color="#ccc"/><stop offset="1" stop-color="#b3b3b3"/></linearGradient><linearGradient id="b" x1="26590.5" y1="-38041.11" x2="26857.06" y2="-38307.67" gradientTransform="matrix(.03 0 0 -.03 -847.54 -1210.84)"><stop offset="0" stop-color="#5cc3f3"/><stop offset="1" stop-color="#5aaaf1"/></linearGradient></defs><path d="M14.76 5.58v10.26H3.24V2.16h8.21z" fill="#fff"/><path d="M14.76 5.58v10.26H3.24V2.16h8.21z" fill="#f9fafa"/><path d="M11.23 2.34l.29 3.6 3.24-.36z" fill="#fff"/><path d="M11.61 1.79H2.7V16.2h12.6V5.51zm2.69 3.72h-2.67V2.82zm.28 10H3.42v-13h7.38v3.86h3.78z" fill="url(#a)"/><path d="M14.25 11.88a1.83 1.83 0 0 1-1.83 1.83H2.83A1.83 1.83 0 0 1 1 11.89v-2.3a1.83 1.83 0 0 1 1.83-1.83h9.59a1.83 1.83 0 0 1 1.83 1.83z" fill="url(#b)"/><path d="M5.35 12.43H4.8l-.62-2-.62 2H3l-.9-3.38h.69l.52 2.13.62-2.13h.49L5 11.18l.53-2.13h.69zm3.73 0v-2l-.65 1.28H8l-.65-1.28v2h-.67V9.05h.65l.88 1.83.88-1.83h.65v3.38zm3.38 0l-.2-.6h-1.2l-.2.6h-.69l1.23-3.38h.52l1.23 3.38zm-.79-2.38l-.43 1.23h.84z" fill="#fff"/></svg>