<svg xmlns="http://www.w3.org/2000/svg" width="18" height="18" viewBox="0 0 18 18"><path fill="#FFF" d="M14.76 5.58v10.26H3.24V2.16h8.208l3.312 3.42z"/><path fill="#F9FAFA" d="M14.76 5.58v10.26H3.24V2.16h8.208l3.312 3.42z"/><path fill="#FFF" d="M11.232 2.34l.287 3.6 3.24-.36-3.527-3.24z"/><linearGradient id="a" gradientUnits="userSpaceOnUse" x1="5.686" y1="7.288" x2="10.691" y2="12.293"><stop offset="0" stop-color="#ccc"/><stop offset="1" stop-color="#b3b3b3"/></linearGradient><path fill="url(#a)" d="M10.676 7.707c1.206.324 2.08-.435 2.08-.435-1.778-.217-1.703-1.842-2.884-2.255-1.18-.414-1.838-.078-1.838-.078s.045.096.237.448v4.647a4.73 4.73 0 0 0-1.338.448c-1.537.789-2.386 2.202-1.896 3.158.491.956 2.134 1.091 3.671.302 1.538-.788 2.386-2.203 1.895-3.158-.169-.33-.481-.555-.874-.686V7.261c.268.187.576.346.947.446z"/><linearGradient id="b" gradientUnits="userSpaceOnUse" x1="8054.275" y1="-11512.394" x2="8429.275" y2="-11887.394" gradientTransform="matrix(.036 0 0 -.036 -288.624 -411.276)"><stop offset="0" stop-color="#ccc"/><stop offset="1" stop-color="#b3b3b3"/></linearGradient><path fill="url(#b)" d="M11.613 1.794L2.7 1.8v14.4h12.6V5.508l-3.687-3.714zm2.686 3.714h-2.671l-.011-2.689 2.682 2.689zm.281 9.972H3.42V2.52h7.38v3.852h3.78v9.108z"/></svg>