<svg xmlns="http://www.w3.org/2000/svg" width="20" height="20" viewBox="0 0 20 20"><linearGradient id="a" gradientUnits="userSpaceOnUse" x1="2" y1="10" x2="18" y2="10"><stop offset="0" stop-color="#ffad00"/><stop offset="1" stop-color="#d68900"/></linearGradient><path fill="url(#a)" d="M7.174 16.748l.056.05h-.1l.044-.05zM18 6.534v9.354a.908.908 0 0 1-.909.909H9.15a.55.55 0 0 0-.173-.437l-.823-.726.983-1.115.823.725c.249.22.669.148.939-.159s.288-.731.04-.951l-.823-.726.983-1.115.822.725c.248.22.668.148.939-.159.271-.309.29-.733.041-.953l-.558-.491a6.126 6.126 0 0 1-.563.391 3.151 3.151 0 0 1-1.588.432 3.167 3.167 0 0 1-2.254-.952.513.513 0 0 0 .163.371l.726.639-.982 1.114-.726-.639c-.248-.218-.668-.146-.938.161-.271.307-.289.732-.041.951l.726.639-.958 1.088-.725-.639c-.248-.219-.668-.147-.939.16-.271.307-.289.732-.042.951l.813.716H2.928a.908.908 0 0 1-.909-.909V7.5C2.016 7.468 2 7.439 2 7.406V4.111c0-.502.406-.909.908-.909h7.555a.91.91 0 0 1 .91.909V4.3h2.462c-.113.227-.114.472-.001.65.076-.002.158-.012.232-.012.051 0 .092.009.141.01a.872.872 0 0 0-.199.438c-1.731.017-4.291.835-5.188 1.36a2.71 2.71 0 1 0 2.736 4.676c.236-.139.547-.369.892-.658a16.868 16.868 0 0 0 1.677-1.644c.161-.183.317-.369.465-.554l.011-.014c.15-.189.291-.379.418-.566.186-.274.339-.542.456-.796a.875.875 0 0 0 .468-.011 5.477 5.477 0 0 1-.583 1.108l.413.364c.248.219.669.147.938-.16.271-.307.29-.733.041-.952l-.56-.493c.037-.026.079-.041.112-.074l.966-.958.465.409a.495.495 0 0 0 .265.111zm-3.186 3.202l-.353-.311c-.336.378-.689.738-1.035 1.062l.408.36c.249.219.669.146.94-.16.271-.307.289-.731.04-.951zm-2.916-.927c0 .001 0 .001 0 0a1.704 1.704 0 0 1-1.682 1.968c-.301 0-.597-.083-.858-.234-.015-.008-.028-.023-.044-.033a1.609 1.609 0 0 1-.298-.225 1.708 1.708 0 1 1 2.808-1.781c.035.1.059.203.074.305zm-.48-.113l-.398-.351c-.248-.219-.668-.147-.939.16-.271.308-.289.734-.041.952l.725.639-.141.159c.078-.027.156-.053.228-.095.515-.303.735-.916.566-1.464z"/></svg>