<svg xmlns="http://www.w3.org/2000/svg" width="18" height="18" viewBox="0 0 18 18"><path fill="#FFF" d="M14.76 5.58v10.26H3.24V2.16h8.208l3.312 3.42z"/><path fill="#F9FAFA" d="M14.76 5.58v10.26H3.24V2.16h8.208l3.312 3.42z"/><linearGradient id="a" gradientUnits="userSpaceOnUse" x1="35969.613" y1="51250.613" x2="36218.418" y2="51499.414" gradientTransform="matrix(.032 0 0 .032 -1146.01 -1636.52)"><stop offset="0" stop-color="#7aa8d9"/><stop offset="1" stop-color="#335f7f"/></linearGradient><path fill="url(#a)" d="M4.7 3.818h8.599v7.325H4.7V3.818z"/><linearGradient id="b" gradientUnits="userSpaceOnUse" x1="35995.523" y1="51306.344" x2="36053.242" y2="51364.059" gradientTransform="matrix(.032 0 0 .032 -1146.01 -1636.52)"><stop offset=".236" stop-color="#f2da00"/><stop offset="1" stop-color="#ffbd00"/></linearGradient><circle fill="url(#b)" cx="6.771" cy="6.206" r="1.306"/><linearGradient id="c" gradientUnits="userSpaceOnUse" x1="36065.266" y1="51383.184" x2="36155.781" y2="51473.699" gradientTransform="matrix(.032 0 0 .032 -1146.01 -1636.52)"><stop offset="0" stop-color="#ccc"/><stop offset="1" stop-color="#b3b3b3"/></linearGradient><path fill="url(#c)" d="M8.532 10.33l.905-.32.74-1.285.871.563.507-.119 1.071-.887.672.034v-.595l-.973-.563-.941.722-1.174-1.364-1.612 2.732-1.208-.605-1.93 1.719 2.063-.395 1.009.363z"/><linearGradient id="d" gradientUnits="userSpaceOnUse" x1="36047.055" y1="51398.535" x2="36183.676" y2="51535.156" gradientTransform="matrix(.032 0 0 .032 -1146.01 -1636.52)"><stop offset="0" stop-color="#ccc"/><stop offset="1" stop-color="#b3b3b3"/></linearGradient><path fill="url(#d)" d="M13.299 11.174V8.316l-.672-.031-1.072.883-.506.119-.871-.563-.74 1.285-.905.322-1.008-.362-2.065.392-.823.73 8.662.083z"/><linearGradient id="e" gradientUnits="userSpaceOnUse" x1="36044.434" y1="51395.914" x2="36187.875" y2="51539.355" gradientTransform="matrix(.032 0 0 .032 -1146.01 -1636.52)"><stop offset="0" stop-color="#74b739"/><stop offset="1" stop-color="#56991c"/></linearGradient><path fill="url(#e)" d="M13.299 11.174V8.316l-.672-.031-1.072.883-.506.119-.871-.563-.74 1.285-.905.322-1.008-.362-2.065.392-.823.73 8.662.083z"/><linearGradient id="f" gradientUnits="userSpaceOnUse" x1="35964.641" y1="51246.617" x2="36223.418" y2="51505.395" gradientTransform="matrix(.032 0 0 .032 -1146.01 -1636.52)"><stop offset="0" stop-color="#ccc"/><stop offset="1" stop-color="#b3b3b3"/></linearGradient><path fill="url(#f)" d="M13.141 4.009v7.007H4.859V4.009h8.282m.318-.319H4.541v7.644h8.918V3.69z"/><path fill="#FFF" d="M11.232 2.34l.287 3.6 3.234-.36-3.521-3.24z"/><linearGradient id="g" gradientUnits="userSpaceOnUse" x1="56158.355" y1="-80172.391" x2="56533.355" y2="-80547.391" gradientTransform="matrix(.036 0 0 -.036 -2020.371 -2883.036)"><stop offset="0" stop-color="#ccc"/><stop offset="1" stop-color="#b3b3b3"/></linearGradient><path fill="url(#g)" d="M11.613 1.794L2.7 1.8v14.4h12.6V5.508l-3.687-3.714zm2.686 3.714h-2.671l-.011-2.689 2.682 2.689zm.281 9.972H3.42V2.52h7.38v3.852h3.78v9.108z"/><linearGradient id="h" gradientUnits="userSpaceOnUse" x1="35909.969" y1="51351.23" x2="36160.902" y2="51602.164" gradientTransform="matrix(.032 0 0 .032 -1146.01 -1636.52)"><stop offset="0" stop-color="#196b99"/><stop offset="1" stop-color="#0d5c7f"/></linearGradient><path fill="url(#h)" d="M13.25 11.881a1.83 1.83 0 0 1-1.831 1.83H2.831A1.83 1.83 0 0 1 1 11.881V9.588a1.83 1.83 0 0 1 1.831-1.831h8.588a1.83 1.83 0 0 1 1.831 1.831v2.293z"/><g fill="#FFF"><path d="M3.444 12.425V9.72h-.966v-.552h2.588v.552h-.964v2.705h-.658zM5.471 12.425V9.168h.657v3.256h-.657zM6.759 12.425V9.168h2.232v.552H7.417v.771h1.36v.552h-1.36v1.383h-.658zM9.539 12.425V9.168h2.232v.552h-1.576v.771h1.359v.552h-1.359v1.383h-.656z"/></g></svg>