<svg xmlns="http://www.w3.org/2000/svg" width="18" height="18"><defs><linearGradient id="a" x1="23783.6" y1="-33989.28" x2="24158.6" y2="-34364.28" gradientTransform="matrix(.04 0 0 -.04 -854.88 -1220.44)"><stop offset="0" stop-color="#ccc"/><stop offset="1" stop-color="#b3b3b3"/></linearGradient><linearGradient id="b" x1="26590.5" y1="-38041.11" x2="26857.06" y2="-38307.67" gradientTransform="matrix(.03 0 0 -.03 -847.54 -1210.84)"><stop offset="0" stop-color="#c9473d"/><stop offset="1" stop-color="#9e3939"/></linearGradient></defs><path d="M14.76 5.58v10.26H3.24V2.16h8.21z" fill="#fff"/><path d="M14.76 5.58v10.26H3.24V2.16h8.21z" fill="#f9fafa"/><path d="M11.23 2.34l.29 3.6 3.24-.36z" fill="#fff"/><path d="M11.61 1.79H2.7V16.2h12.6V5.51zm2.69 3.72h-2.67V2.82zm.28 10H3.42v-13h7.38v3.86h3.78z" fill="url(#a)"/><path d="M14.25 11.88a1.83 1.83 0 0 1-1.83 1.83H2.83A1.83 1.83 0 0 1 1 11.89v-2.3a1.83 1.83 0 0 1 1.83-1.83h9.59a1.83 1.83 0 0 1 1.83 1.83z" fill="url(#b)"/><path d="M4.07 12.43l-.66-1.18-.65 1.18H2l1-1.73-1-1.65h.75l.59 1.09L4 9.05h.75l-1 1.65 1.05 1.73zm1.18 0V9.05h.66v2.79h1.53v.59zm3.66.03A1.59 1.59 0 0 1 7.68 12l.43-.43a1.11 1.11 0 0 0 .82.28c.39 0 .6-.15.6-.42a.38.38 0 0 0-.1-.29.5.5 0 0 0-.3-.12L8.71 11a1.15 1.15 0 0 1-.71-.28.9.9 0 0 1-.24-.67A1 1 0 0 1 9 9a1.45 1.45 0 0 1 1.09.39l-.42.41A.94.94 0 0 0 9 9.6c-.35 0-.52.19-.52.43a.33.33 0 0 0 .1.24.58.58 0 0 0 .31.13l.4.06a1.11 1.11 0 0 1 .65.26.94.94 0 0 1 .26.72c-.04.65-.58 1.02-1.29 1.02zm3.57-.03l-.66-1.18-.65 1.18h-.75l1-1.73-1-1.65h.75l.59 1.09.59-1.09h.75l-1 1.65 1.05 1.73z" fill="#fff"/></svg>