<svg xmlns="http://www.w3.org/2000/svg" width="18" height="18"><defs><clipPath id="a"><path d="M0 0h18v18H0z"/></clipPath></defs><g clip-path="url(#a)"><clipPath id="b"><path d="M0 0h18v18H0V0z" fill="#FFF"/></clipPath><g clip-path="url(#b)"><path d="M14.76 5.58v10.26H3.24V2.16h8.21l3.31 3.42z" fill="#FFF"/><path d="M14.76 5.58v10.26H3.24V2.16h8.21l3.31 3.42z" fill="#F9FAFA"/><path d="M11.23 2.34l.29 3.6 3.24-.36-3.53-3.24z" fill="#FFF"/><linearGradient id="c" x1="0" y1=".5" x2=".607" y2="1.295" gradientTransform="matrix(12.6 0 0 14.41 2.7 1.79)" gradientUnits="userSpaceOnUse"><stop offset="100%" stop-color="#ccc"/><stop offset="100%" stop-color="#ccc"/></linearGradient><path d="M11.61 1.79H2.7V16.2h12.6V5.51l-3.69-3.72zm2.69 3.72h-2.67V2.82l2.67 2.69zm.28 10H3.42v-13h7.38v3.86h3.78v9.14z" fill="url(#c)"/><linearGradient id="d" x1="0" y1=".5" x2=".912" y2=".684" gradientTransform="matrix(13.25 0 0 5.95 1 7.76)" gradientUnits="userSpaceOnUse"><stop offset="0%" stop-color="#0d5c7f"/></linearGradient><path d="M14.25 11.88a1.83 1.83 0 0 1-1.83 1.83H2.83A1.83 1.83 0 0 1 1 11.89v-2.3a1.83 1.83 0 0 1 1.83-1.83h9.59a1.83 1.83 0 0 1 1.83 1.83v2.29z" fill="url(#d)"/><path d="M5.19 12.43l-.2-.6h-1.2l-.2.6H2.9l1.23-3.38h.52l1.23 3.38h-.69zm-.79-2.38l-.43 1.23h.82l-.39-1.23zm2.96 2.38h-.49L5.79 9.05h.68l.68 2.2.64-2.2h.69l-1.12 3.38zm1.53 0V9.05h.66v3.38h-.66zm1.93-2.79v.83h1.33v.59h-1.33v1.37h-.66V9.05h2.23v.59h-1.57z" fill-rule="evenodd" fill="#FFF"/></g></g></svg>