<?xml version="1.0" encoding="UTF-8"?>
<svg xmlns="http://www.w3.org/2000/svg" width="18" height="18" viewBox="0 0 18 18"><path fill="#FFF" d="M14.76 5.58v10.26H3.24V2.16h8.208l3.312 3.42z"/><path fill="#F9FAFA" d="M14.76 5.58v10.26H3.24V2.16h8.208l3.312 3.42z"/><linearGradient id="a" gradientUnits="userSpaceOnUse" x1="4.969" y1="6.675" x2="9.063" y2="6.675"><stop offset="0" stop-color="#c9473d"/><stop offset="1" stop-color="#9e3939"/></linearGradient><path fill="url(#a)" d="M4.969 4.813h4.094v3.725H4.969z"/><linearGradient id="b" gradientUnits="userSpaceOnUse" x1="6.661" y1="9.247" x2="12.361" y2="9.247"><stop offset="0" stop-color="#196b99"/><stop offset="1" stop-color="#0d5c7f"/></linearGradient><path fill="url(#b)" d="M10.589 11.99A2.849 2.849 0 0 0 9.51 6.504a2.85 2.85 0 0 0-2.85 2.85c0 .908.434 1.709 1.096 2.231L9.021 9.9l1.568 2.09z"/><linearGradient id="c" gradientUnits="userSpaceOnUse" x1="5.885" y1="12.833" x2="12.156" y2="12.833"><stop offset="0" stop-color="#ffd100"/><stop offset="1" stop-color="#d69100"/></linearGradient><path fill="url(#c)" d="M9.511 12.205a2.823 2.823 0 0 1-1.754-.619L5.885 14.08h6.271l-1.567-2.09a2.825 2.825 0 0 1-1.078.215z"/><linearGradient id="d" gradientUnits="userSpaceOnUse" x1="6.661" y1="11.053" x2="12.361" y2="11.053"><stop offset="0" stop-color="#196b99"/><stop offset="1" stop-color="#0d5c7f"/></linearGradient><path fill="url(#d)" d="M10.589 11.99L9.021 9.9l-1.264 1.686a2.823 2.823 0 0 0 1.754.619c.382 0 .745-.078 1.078-.215z"/><linearGradient id="e" gradientUnits="userSpaceOnUse" x1="5.885" y1="11.053" x2="12.156" y2="11.053"><stop offset="0" stop-color="#ffd100"/><stop offset="1" stop-color="#d69100"/></linearGradient><path fill="url(#e)" d="M10.589 11.99L9.021 9.9l-1.264 1.686a2.823 2.823 0 0 0 1.754.619c.382 0 .745-.078 1.078-.215z"/><path fill="#FFF" d="M11.232 2.34l.287 3.6 3.237-.36-3.524-3.24z"/><linearGradient id="f" gradientUnits="userSpaceOnUse" x1="32106.313" y1="45861.395" x2="32481.313" y2="46236.391" gradientTransform="matrix(.036 0 0 .036 -1154.497 -1647.84)"><stop offset="0" stop-color="#ccc"/><stop offset="1" stop-color="#b3b3b3"/></linearGradient><path fill="url(#f)" d="M11.613 1.794L2.7 1.8v14.4h12.6V5.508l-3.687-3.714zm2.686 3.714h-2.671l-.011-2.689 2.682 2.689zm.281 9.972H3.42V2.52h7.38v3.852h3.78v9.108z"/></svg>