<?xml version="1.0" encoding="UTF-8"?>
<svg xmlns="http://www.w3.org/2000/svg" width="18" height="18" viewBox="0 0 18 18"><path fill="#FFF" d="M14.76 5.58v10.26H3.24V2.16h8.208l3.312 3.42z"/><path fill="#F9FAFA" d="M14.76 5.58v10.26H3.24V2.16h8.208l3.312 3.42z"/><path fill="#FFF" d="M11.232 2.34l.287 3.6 3.236-.36-3.523-3.24z"/><linearGradient id="a" gradientUnits="userSpaceOnUse" x1="40123.656" y1="-57285.73" x2="40498.656" y2="-57660.727" gradientTransform="matrix(.036 0 0 -.036 -1443.122 -2059.116)"><stop offset="0" stop-color="#ccc"/><stop offset="1" stop-color="#b3b3b3"/></linearGradient><path fill="url(#a)" d="M11.613 1.794L2.7 1.8v14.4h12.6V5.508l-3.687-3.714zm2.686 3.714h-2.671l-.011-2.689 2.682 2.689zm.281 9.972H3.42V2.52h7.38v3.852h3.78v9.108z"/><linearGradient id="b" gradientUnits="userSpaceOnUse" x1="26890.344" y1="-38458.492" x2="27141.273" y2="-38709.422" gradientTransform="matrix(.032 0 0 -.032 -857.38 -1223.952)"><stop offset="0" stop-color="#c9473d"/><stop offset="1" stop-color="#9e3939"/></linearGradient><path fill="url(#b)" d="M13.25 11.881a1.83 1.83 0 0 1-1.831 1.83H2.831A1.83 1.83 0 0 1 1 11.881V9.588a1.83 1.83 0 0 1 1.831-1.831h8.588a1.83 1.83 0 0 1 1.831 1.831v2.293z"/><g fill="#FFF"><path d="M5.838 8.978h.703v2.212c0 .29-.025.512-.076.668-.069.204-.192.367-.372.49s-.417.186-.711.186c-.345 0-.61-.098-.796-.291-.186-.192-.28-.477-.281-.85l.665-.076c.008.2.038.342.088.425a.38.38 0 0 0 .349.188c.157 0 .268-.045.333-.135.065-.091.098-.277.098-.561V8.978zM7.114 11.335l.686-.065c.042.23.125.399.252.509.127.107.297.161.511.161.228 0 .399-.047.515-.144a.432.432 0 0 0 .172-.338.324.324 0 0 0-.072-.212.584.584 0 0 0-.254-.15 8.556 8.556 0 0 0-.565-.152c-.378-.095-.644-.21-.796-.346a.913.913 0 0 1-.172-1.204.952.952 0 0 1 .438-.354c.189-.081.419-.122.688-.122.439 0 .769.096.992.289.221.192.338.45.35.77l-.707.03c-.031-.179-.096-.309-.196-.387-.1-.079-.248-.118-.447-.118-.205 0-.366.042-.481.127a.253.253 0 0 0-.113.217c0 .083.035.153.105.213.089.073.306.152.649.232.343.082.597.165.762.253a.98.98 0 0 1 .388.355c.092.149.139.335.139.557a1.032 1.032 0 0 1-.64.954 1.982 1.982 0 0 1-.76.127c-.442 0-.782-.103-1.019-.307-.237-.206-.379-.503-.425-.895z"/></g></svg>