<svg xmlns="http://www.w3.org/2000/svg" width="18" height="18"><defs><clipPath id="a"><path d="M0 0h18v18H0z"/></clipPath></defs><g clip-path="url(#a)"><clipPath id="b"><path d="M0 0h18v18H0V0z" fill="#FFF"/></clipPath><g clip-path="url(#b)"><path d="M14.76 5.58v10.26H3.24V2.16h8.21l3.31 3.42z" fill="#FFF"/><path d="M14.76 5.58v10.26H3.24V2.16h8.21l3.31 3.42z" fill="#F9FAFA"/><path d="M11.23 2.34l.29 3.6 3.24-.36-3.53-3.24z" fill="#FFF"/><linearGradient id="c" x1="0" y1=".5" x2=".607" y2="1.295" gradientTransform="matrix(12.6 0 0 14.41 2.7 1.79)" gradientUnits="userSpaceOnUse"><stop offset="100%" stop-color="#ccc"/><stop offset="100%" stop-color="#ccc"/></linearGradient><path d="M11.61 1.79H2.7V16.2h12.6V5.51l-3.69-3.72zm2.69 3.72h-2.67V2.82l2.67 2.69zm.28 10H3.42v-13h7.38v3.86h3.78v9.14z" fill="url(#c)"/><linearGradient id="d" x1="0" y1=".5" x2=".912" y2=".684" gradientTransform="matrix(13.25 0 0 5.95 1 7.76)" gradientUnits="userSpaceOnUse"><stop offset="0%" stop-color="#0d5c7f"/></linearGradient><path d="M14.25 11.88a1.83 1.83 0 0 1-1.83 1.83H2.83A1.83 1.83 0 0 1 1 11.89v-2.3a1.83 1.83 0 0 1 1.83-1.83h9.59a1.83 1.83 0 0 1 1.83 1.83v2.29z" fill="url(#d)"/><path d="M8.68 12.43V9.05h.66v3.38h-.66zm2.561.03a1.242 1.242 0 0 1-.91-.37.999.999 0 0 1-.28-.51 4.549 4.549 0 0 1-.06-.84 4.549 4.549 0 0 1 .06-.84.999.999 0 0 1 .28-.51 1.24 1.24 0 0 1 .91-.39 1.19 1.19 0 0 1 1.24 1.07h-.67a.56.56 0 0 0-.57-.48.52.52 0 0 0-.42.18c-.14.15-.17.3-.17 1s0 .81.17 1a.518.518 0 0 0 .42.17.56.56 0 0 0 .57-.48h.67a1.19 1.19 0 0 1-1.24 1zm-5.451-.03V9.05h2.22v.59H6.45v.79h1.33V11H6.45v.82h1.56v.59l-2.22.02zm-1.19 0V11H3.46v1.41H2.8V9.05h.66v1.38H4.6V9.05h.66v3.38H4.6z" fill-rule="evenodd" fill="#FFF"/></g></g></svg>