<svg xmlns="http://www.w3.org/2000/svg" width="18" height="18"><path fill="#FFFFFF" d="M14.76,5.58v10.26H3.24V2.16h8.21L14.76,5.58z"/><path fill="#F9FAFA" d="M14.76,5.58v10.26H3.24V2.16h8.21L14.76,5.58z"/><path fill="#FFFFFF" d="M11.23,2.34l0.29,3.6l3.24-0.36L11.23,2.34z"/><linearGradient id="a" gradientUnits="userSpaceOnUse" x1="24269.9414" y1="33495.9414" x2="24644.9414" y2="33870.9414" gradientTransform="matrix(0.04 0 0 0.04 -853.92 -1221.12)"><stop offset="0" style="stop-color:#CCCCCC"/><stop offset="1" style="stop-color:#B3B3B3"/></linearGradient><path fill="url(#a)" d="M11.61,1.79H2.7V16.2h12.6V5.51L11.61,1.79z M14.3,5.51h-2.67V2.82L14.3,5.51z M14.58,15.51H3.42v-13 h7.38v3.86h3.78L14.58,15.51z"/><linearGradient id="b" gradientUnits="userSpaceOnUse" x1="26177.0195" y1="38439.2539" x2="26443.5801" y2="38705.8164" gradientTransform="matrix(0.03 0 0 0.03 -846.57 -1211.35)"><stop offset="0" style="stop-color:#C9473D"/><stop offset="1" style="stop-color:#9E3939"/></linearGradient><path fill="url(#b)" d="M14.261,11.869c0,1.011-0.819,1.83-1.83,1.83h-9.59c-1.007,0-1.824-0.813-1.83-1.82v-2.3 c0-1.011,0.819-1.83,1.83-1.83h9.59c1.011,0,1.83,0.819,1.83,1.83V11.869z"/><path fill="#FFFFFF" d="M4.88,12.46C4.549,12.459,4.232,12.326,4,12.09c-0.142-0.138-0.239-0.316-0.28-0.51 c-0.046-0.278-0.066-0.559-0.06-0.84c-0.006-0.281,0.014-0.562,0.06-0.84C3.763,9.71,3.86,9.536,4,9.4 C4.227,9.153,4.545,9.009,4.88,9c0.632-0.03,1.177,0.44,1.24,1.07H5.45C5.409,9.788,5.164,9.582,4.88,9.59 C4.72,9.582,4.565,9.648,4.46,9.77c-0.14,0.15-0.17,0.3-0.17,1s0,0.81,0.17,1c0.107,0.118,0.261,0.181,0.42,0.17 c0.284,0.008,0.529-0.198,0.57-0.48h0.67C6.024,12.062,5.488,12.493,4.88,12.46z M7.63,12.46C7.169,12.494,6.717,12.326,6.39,12 l0.43-0.43c0.224,0.201,0.52,0.302,0.82,0.28c0.39,0,0.6-0.15,0.6-0.42c0.009-0.106-0.027-0.212-0.1-0.29 c-0.084-0.072-0.189-0.114-0.3-0.12L7.42,11c-0.244-0.021-0.475-0.119-0.66-0.28c-0.169-0.181-0.255-0.423-0.24-0.67 C6.483,9.499,6.9,9.022,7.451,8.985C7.534,8.98,7.618,8.985,7.7,9c0.402-0.027,0.797,0.114,1.09,0.39L8.37,9.8 C8.18,9.634,7.932,9.551,7.68,9.57c-0.35,0-0.52,0.19-0.52,0.43c-0.001,0.09,0.035,0.177,0.1,0.24 c0.088,0.073,0.196,0.118,0.31,0.13l0.4,0.06c0.239,0.014,0.467,0.105,0.65,0.26c0.185,0.192,0.279,0.454,0.26,0.72 C8.88,12.09,8.33,12.46,7.63,12.46z M10.661,12.439h-0.49l-1.12-3.38h0.68l0.68,2.2l0.68-2.2h0.69L10.661,12.439z"/></svg>