<svg xmlns="http://www.w3.org/2000/svg" width="18" height="18"><defs><clipPath id="a"><path d="M0 0h18v18H0z"/></clipPath></defs><g clip-path="url(#a)"><path d="M14.76 5.58v10.26H3.24V2.16h8.21l3.31 3.42z" fill="#FFF"/><path d="M14.76 5.58v10.26H3.24V2.16h8.21l3.31 3.42z" fill="#F9FAFA"/><path d="M11.23 2.34l.29 3.6 3.24-.36-3.53-3.24z" fill="#FFF"/><linearGradient id="b" y1=".5" x2=".658" y2="1.253" gradientTransform="matrix(12.6 0 0 14.41 2.7 1.79)" gradientUnits="userSpaceOnUse"><stop offset="100%" stop-color="#ccc"/><stop offset="100%" stop-color="#ccc"/></linearGradient><path d="M11.61 1.79H2.7V16.2h12.6V5.51l-3.69-3.72zm2.69 3.72h-2.67V2.82l2.67 2.69zm.28 10H3.42v-13h7.38v3.86h3.78v9.14z" fill="url(#b)"/><linearGradient id="c" y1=".5" x2=".912" y2=".91" gradientTransform="matrix(13.25 0 0 5.95 1 7.76)" gradientUnits="userSpaceOnUse"><stop offset="0%" stop-color="#0d5c7f"/></linearGradient><path d="M14.25 11.88a1.83 1.83 0 0 1-1.83 1.83H2.83A1.83 1.83 0 0 1 1 11.89v-2.3a1.83 1.83 0 0 1 1.83-1.83h9.59a1.83 1.83 0 0 1 1.83 1.83v2.29z" fill="url(#c)"/><path d="M1.502 9.14l.817 3.275h.414l.626-2.361h.009l.625 2.361h.415l.818-3.275h-.524l-.516 2.327h-.009L3.543 9.14h-.359l-.636 2.327h-.009L2.025 9.14h-.523zm4.271 0v3.275h2.091v-.47H6.27v-.961h1.361v-.44H6.27v-.935h1.594V9.14H5.773zm2.709 0v3.275h1.379q.386 0 .644-.259.261-.247.265-.671 0-.256-.128-.474-.137-.211-.404-.281v-.009q.141-.067.238-.15.097-.079.148-.167.101-.184.097-.386 0-.395-.245-.635-.243-.239-.725-.243H8.482zm.496 1.822h.764q.276.004.404.146.128.143.128.345 0 .198-.128.342-.128.146-.404.15h-.764v-.983zm0-1.38h.716q.272.005.4.133.131.137.131.335 0 .197-.131.328-.128.141-.4.141h-.716v-.937zm2.955 1.085V9.609h.717q.202-.004.355.092.101.059.157.16.054.112.054.276 0 .198-.133.36-.139.166-.415.17h-.735zm-.496-1.527v3.275h.496v-1.278h.755q.505-.009.768-.324.256-.298.256-.662 0-.27-.101-.468-.096-.204-.251-.314-.185-.146-.364-.193-.18-.036-.373-.036h-1.186z" fill="#FFF" stroke-width=".1" stroke="#FFF" stroke-linecap="square" stroke-miterlimit="3"/></g></svg>