<svg xmlns="http://www.w3.org/2000/svg" width="18" height="18" viewBox="0 0 18 18"><path fill="#FFF" d="M14.76 5.58v10.26H3.24V2.16h8.208l3.312 3.42z"/><path fill="#F9FAFA" d="M14.76 5.58v10.26H3.24V2.16h8.208l3.312 3.42z"/><path fill="#FFF" d="M11.232 2.34l.287 3.6 3.235-.36-3.522-3.24z"/><linearGradient id="a" gradientUnits="userSpaceOnUse" x1="48141.004" y1="68748.055" x2="48516.004" y2="69123.055" gradientTransform="matrix(.036 0 0 .036 -1731.746 -2471.76)"><stop offset="0" stop-color="#ccc"/><stop offset="1" stop-color="#b3b3b3"/></linearGradient><path fill="url(#a)" d="M11.613 1.794L2.7 1.8v14.4h12.6V5.508l-3.687-3.714zm2.686 3.714h-2.671l-.011-2.689 2.682 2.689zm.281 9.972H3.42V2.52h7.38v3.852h3.78v9.108z"/><linearGradient id="b" gradientUnits="userSpaceOnUse" x1="26949.988" y1="-38451.621" x2="27198.791" y2="-38700.422" gradientTransform="matrix(.032 0 0 -.032 -857.38 -1223.952)"><stop offset="0" stop-color="#7aa8d9"/><stop offset="1" stop-color="#335f7f"/></linearGradient><path fill="url(#b)" d="M4.7 6.818h8.599v7.325H4.7V6.818z"/><linearGradient id="c" gradientUnits="userSpaceOnUse" x1="26975.887" y1="-38507.344" x2="27033.607" y2="-38565.063" gradientTransform="matrix(.032 0 0 -.032 -857.38 -1223.952)"><stop offset=".236" stop-color="#f2da00"/><stop offset="1" stop-color="#ffbd00"/></linearGradient><circle fill="url(#c)" cx="6.771" cy="9.206" r="1.306"/><linearGradient id="d" gradientUnits="userSpaceOnUse" x1="27045.641" y1="-38584.195" x2="27136.156" y2="-38674.711" gradientTransform="matrix(.032 0 0 -.032 -857.38 -1223.952)"><stop offset="0" stop-color="#ccc"/><stop offset="1" stop-color="#b3b3b3"/></linearGradient><path fill="url(#d)" d="M8.532 13.33l.905-.32.74-1.285.871.563.507-.119 1.071-.887.672.034v-.596l-.973-.563-.941.723-1.174-1.364-1.612 2.732-1.208-.605-1.93 1.719 2.063-.395 1.009.363z"/><linearGradient id="e" gradientUnits="userSpaceOnUse" x1="27027.422" y1="-38599.551" x2="27164.025" y2="-38736.156" gradientTransform="matrix(.032 0 0 -.032 -857.38 -1223.952)"><stop offset="0" stop-color="#ccc"/><stop offset="1" stop-color="#b3b3b3"/></linearGradient><path fill="url(#e)" d="M13.299 14.174v-2.857l-.672-.032-1.072.883-.506.119-.871-.562-.74 1.285-.905.322-1.008-.363-2.065.392-.823.731 8.662.082z"/><linearGradient id="f" gradientUnits="userSpaceOnUse" x1="27024.793" y1="-38596.922" x2="27168.234" y2="-38740.363" gradientTransform="matrix(.032 0 0 -.032 -857.38 -1223.952)"><stop offset="0" stop-color="#74b739"/><stop offset="1" stop-color="#56991c"/></linearGradient><path fill="url(#f)" d="M13.299 14.174v-2.857l-.672-.032-1.072.883-.506.119-.871-.562-.74 1.285-.905.322-1.008-.363-2.065.392-.823.731 8.662.082z"/><linearGradient id="g" gradientUnits="userSpaceOnUse" x1="26945.012" y1="-38447.625" x2="27203.793" y2="-38706.406" gradientTransform="matrix(.032 0 0 -.032 -857.38 -1223.952)"><stop offset="0" stop-color="#ccc"/><stop offset="1" stop-color="#b3b3b3"/></linearGradient><path fill="url(#g)" d="M13.141 7.009v7.007H4.859V7.009h8.282m.318-.319H4.541v7.644h8.918V6.69z"/></svg>