<svg xmlns="http://www.w3.org/2000/svg" width="18" height="18"><defs><clipPath id="a"><path d="M0 0h18v18H0z"/></clipPath></defs><g clip-path="url(#a)"><path d="M14.76 5.58v10.26H3.24V2.16h8.21l3.31 3.42z" fill="#FFF"/><path d="M14.76 5.58v10.26H3.24V2.16h8.21l3.31 3.42z" fill="#F9FAFA"/><linearGradient id="b" x1="7.442" y1="9.531" x2="8.56" y2="10.649" gradientTransform="matrix(12.6 0 0 14.41 2.7 1.79)" gradientUnits="userSpaceOnUse"><stop offset="0%" stop-color="#ccc"/><stop offset="100%" stop-color="#b3b3b3"/></linearGradient><path d="M11.61 1.79H2.7V16.2h12.6V5.51l-3.69-3.72zm2.69 3.72h-2.67V2.82l2.67 2.69zm.28 10H3.42v-13h7.38v3.86h3.78v9.14z" fill="url(#b)"/><linearGradient id="c" x1="-3.836" y1="-13.003" x2="-3.232" y2="-12.399" gradientTransform="matrix(13.25 0 0 5.95 1 7.76)" gradientUnits="userSpaceOnUse"><stop offset="0%" stop-color="#ffad00"/><stop offset="100%" stop-color="#d68900"/></linearGradient><path d="M14.25 11.88a1.83 1.83 0 0 1-1.83 1.83H2.83A1.83 1.83 0 0 1 1 11.89v-2.3a1.83 1.83 0 0 1 1.83-1.83h9.59a1.83 1.83 0 0 1 1.83 1.83v2.29z" fill="url(#c)"/><path d="M4.88 12.46a1.239 1.239 0 0 1-.88-.37.999.999 0 0 1-.28-.51 4.549 4.549 0 0 1-.06-.84 4.549 4.549 0 0 1 .06-.84c.043-.19.14-.364.28-.5a1.24 1.24 0 0 1 .88-.4 1.19 1.19 0 0 1 1.24 1.07h-.67a.56.56 0 0 0-.57-.48.52.52 0 0 0-.42.18c-.14.15-.17.3-.17 1s0 .81.17 1a.518.518 0 0 0 .42.17.56.56 0 0 0 .57-.48h.67a1.19 1.19 0 0 1-1.24 1zm2.7.017a1.592 1.592 0 0 1-1.23-.46l.43-.43c.224.2.52.301.82.28.39 0 .6-.15.6-.42a.377.377 0 0 0-.1-.29.495.495 0 0 0-.3-.12l-.42-.02a1.156 1.156 0 0 1-.66-.28.9.9 0 0 1-.24-.67.998.998 0 0 1 1.18-1.05c.402-.027.797.114 1.09.39l-.42.41a.94.94 0 0 0-.69-.23c-.35 0-.52.19-.52.43a.33.33 0 0 0 .1.24.58.58 0 0 0 .31.13l.4.06c.239.014.467.105.65.26a.94.94 0 0 1 .26.72c0 .68-.55 1.05-1.26 1.05zm3.11-.03h-.49l-1.12-3.38h.68l.68 2.2.68-2.2h.69l-1.12 3.38z" fill="#FFF"/></g></svg>