<?xml version="1.0" encoding="UTF-8"?>
<svg xmlns="http://www.w3.org/2000/svg" width="18" height="18" viewBox="0 0 18 18"><path fill="#FFF" d="M14.76 5.58v10.26H3.24V2.16h8.208l3.312 3.42z"/><path fill="#F9FAFA" d="M14.76 5.58v10.26H3.24V2.16h8.208l3.312 3.42z"/><path fill="#FFF" d="M11.232 2.34l.287 3.6 3.237-.36-3.524-3.24z"/><linearGradient id="a" gradientUnits="userSpaceOnUse" x1="32106.313" y1="45861.395" x2="32481.313" y2="46236.391" gradientTransform="matrix(.036 0 0 .036 -1154.497 -1647.84)"><stop offset="0" stop-color="#ccc"/><stop offset="1" stop-color="#b3b3b3"/></linearGradient><path fill="url(#a)" d="M11.613 1.794L2.7 1.8v14.4h12.6V5.508l-3.687-3.714zm2.686 3.714h-2.671l-.011-2.689 2.682 2.689zm.281 9.972H3.42V2.52h7.38v3.852h3.78v9.108z"/><linearGradient id="b" gradientUnits="userSpaceOnUse" x1="17870.707" y1="25603.75" x2="18121.637" y2="25854.68" gradientTransform="matrix(.032 0 0 .032 -568.752 -812.6)"><stop offset="0" stop-color="#ffad00"/><stop offset="1" stop-color="#d68900"/></linearGradient><path fill="url(#b)" d="M13.25 11.881a1.83 1.83 0 0 1-1.831 1.83H2.831A1.83 1.83 0 0 1 1 11.881V9.588a1.83 1.83 0 0 1 1.831-1.831h8.588a1.83 1.83 0 0 1 1.831 1.831v2.293z"/><path fill="#FFF" d="M4.743 9.941a.786.786 0 0 0-.167-.188.792.792 0 0 0-.491-.171.875.875 0 0 0-.429.098.816.816 0 0 0-.286.261c-.073.11-.126.235-.16.375-.033.141-.05.285-.05.434 0 .145.017.283.05.418.034.135.087.256.16.365a.843.843 0 0 0 .286.26.889.889 0 0 0 .429.098c.229 0 .408-.07.537-.211a.961.961 0 0 0 .236-.553h.725a1.713 1.713 0 0 1-.148.577 1.32 1.32 0 0 1-.773.714 1.691 1.691 0 0 1-.577.095c-.261 0-.495-.045-.703-.136s-.384-.215-.527-.374a1.643 1.643 0 0 1-.329-.561 2.06 2.06 0 0 1-.114-.693c0-.254.038-.49.114-.707.076-.219.186-.408.329-.57.143-.162.318-.289.527-.381a1.72 1.72 0 0 1 .703-.138c.188 0 .365.027.532.081.167.054.316.133.448.236s.241.232.327.384.14.326.162.522h-.725a.63.63 0 0 0-.086-.235zM6.665 11.6c.042.08.096.145.165.193a.7.7 0 0 0 .241.109 1.23 1.23 0 0 0 .501.018.836.836 0 0 0 .214-.063.455.455 0 0 0 .167-.133.324.324 0 0 0 .067-.21c0-.093-.029-.168-.088-.226s-.136-.104-.231-.144a2.5 2.5 0 0 0-.324-.1c-.125-.027-.247-.061-.369-.094a3.15 3.15 0 0 1-.372-.117 1.213 1.213 0 0 1-.324-.18c-.096-.072-.172-.164-.231-.273s-.088-.242-.088-.398a.89.89 0 0 1 .112-.455 1.01 1.01 0 0 1 .293-.321c.121-.086.257-.149.41-.191.152-.041.305-.062.458-.062.178 0 .349.02.513.06.164.04.309.104.436.193s.228.203.303.341c.074.139.111.307.111.503h-.724a.613.613 0 0 0-.065-.253.405.405 0 0 0-.145-.156.629.629 0 0 0-.208-.082 1.27 1.27 0 0 0-.255-.024.797.797 0 0 0-.181.02.477.477 0 0 0-.165.066.382.382 0 0 0-.121.119.317.317 0 0 0-.048.181c0 .067.013.121.038.162a.336.336 0 0 0 .15.114c.075.035.178.07.31.104.132.035.305.08.518.134.063.015.152.037.265.069.112.034.224.087.335.159.111.074.208.172.289.294s.122.278.122.47c0 .156-.03.301-.09.434a.935.935 0 0 1-.27.347 1.279 1.279 0 0 1-.443.228c-.177.055-.381.08-.613.08-.188 0-.37-.021-.546-.068a1.386 1.386 0 0 1-.467-.218 1.078 1.078 0 0 1-.322-.377 1.119 1.119 0 0 1-.114-.543h.725c-.001.113.02.21.061.29zm3.095 0c.041.08.096.145.164.193s.148.086.24.109a1.239 1.239 0 0 0 .502.018.836.836 0 0 0 .214-.063.463.463 0 0 0 .167-.133.323.323 0 0 0 .066-.211.302.302 0 0 0-.088-.226.747.747 0 0 0-.231-.144 2.532 2.532 0 0 0-.323-.1c-.123-.029-.246-.063-.367-.096a2.68 2.68 0 0 1-.373-.115 1.213 1.213 0 0 1-.324-.18.84.84 0 0 1-.231-.273.827.827 0 0 1-.088-.398.9.9 0 0 1 .112-.455c.072-.126.173-.235.292-.32.121-.086.258-.15.41-.191s.305-.062.457-.062c.179 0 .35.02.514.06s.309.104.436.193.229.203.303.341c.076.139.113.307.113.503h-.726a.63.63 0 0 0-.063-.253.422.422 0 0 0-.146-.156.603.603 0 0 0-.207-.082 1.353 1.353 0 0 0-.256-.023.812.812 0 0 0-.182.02.456.456 0 0 0-.286.184.324.324 0 0 0-.046.181c0 .067.013.121.037.162.025.042.076.079.15.114s.178.07.311.104c.131.035.305.079.518.134.063.014.15.035.265.068.113.034.226.087.337.159.11.073.207.172.288.294s.121.277.121.47c0 .156-.028.302-.09.435a.94.94 0 0 1-.271.346 1.29 1.29 0 0 1-.442.227 2.04 2.04 0 0 1-.613.082c-.188 0-.368-.022-.546-.07a1.352 1.352 0 0 1-.468-.217 1.071 1.071 0 0 1-.322-.377 1.114 1.114 0 0 1-.115-.543h.725a.608.608 0 0 0 .062.291z"/></svg>