<svg xmlns="http://www.w3.org/2000/svg" width="18" height="18"><defs><linearGradient id="a" x1="23783.6" y1="-33989.28" x2="24158.6" y2="-34364.28" gradientTransform="matrix(.04 0 0 -.04 -854.88 -1220.44)"><stop offset="0" stop-color="#ccc"/><stop offset="1" stop-color="#b3b3b3"/></linearGradient><linearGradient id="b" x1="26613.94" y1="-38017.67" x2="26927.37" y2="-38331.11" gradientTransform="matrix(.03 0 0 -.03 -847.54 -1210.84)"><stop offset="0" stop-color="#c9473d"/><stop offset="1" stop-color="#9e3939"/></linearGradient></defs><path d="M14.76 5.58v10.26H3.24V2.16h8.21z" fill="#fff"/><path d="M14.76 5.58v10.26H3.24V2.16h8.21z" fill="#f9fafa"/><path d="M11.23 2.34l.29 3.6 3.24-.36z" fill="#fff"/><path d="M11.61 1.79H2.7V16.2h12.6V5.51zm2.69 3.72h-2.67V2.82zm.28 10H3.42v-13h7.38v3.86h3.78z" fill="url(#a)"/><path d="M17.25 11.88a1.83 1.83 0 0 1-1.83 1.83H2.83A1.83 1.83 0 0 1 1 11.89v-2.3a1.83 1.83 0 0 1 1.83-1.83h12.59a1.83 1.83 0 0 1 1.83 1.83z" fill="url(#b)"/><path d="M4.48 12.43h-.55l-.62-2-.62 2h-.55l-.9-3.38h.69l.52 2.13.62-2.13h.49l.62 2.13.52-2.13h.69zm2.52 0H5.58V9.05h1.35A.92.92 0 0 1 8 10a.78.78 0 0 1-.42.7.79.79 0 0 1 .47.76.93.93 0 0 1-1.05.97zm-.12-2.79h-.64v.78h.65a.39.39 0 1 0 0-.78zm0 1.37h-.64v.83h.69a.42.42 0 1 0 0-.83zm3.27 1.42l-.65-1.17-.65 1.18h-.76l1-1.73-1-1.65h.75l.59 1.09.59-1.09h.75l-1 1.65 1.05 1.73zm3.34 0v-2l-.65 1.28h-.44l-.65-1.28v2h-.66V9.05h.65l.88 1.83.88-1.83h.65v3.38zm1.22 0V9.05h.66v2.79h1.53v.59z" fill="#fff"/></svg>