<?xml version="1.0" encoding="UTF-8"?>
<svg xmlns="http://www.w3.org/2000/svg" width="18" height="18" viewBox="0 0 18 18"><path fill="#FFF" d="M14.76 5.58v10.26H3.24V2.16h8.208l3.312 3.42z"/><path fill="#F9FAFA" d="M14.76 5.58v10.26H3.24V2.16h8.208l3.312 3.42z"/><path fill="#FFF" d="M11.232 2.34l.287 3.6 3.24-.36-3.527-3.24z"/><linearGradient id="a" gradientUnits="userSpaceOnUse" x1="9552.822" y1="-13266.912" x2="9603.013" y2="-13317.103" gradientTransform="matrix(-.0025 .0319 .0319 .0025 457.022 -262.834)"><stop offset=".073" stop-color="#edad3b"/><stop offset="1" stop-color="#dba049"/></linearGradient><path fill="url(#a)" d="M9.299 11.43l1.529-1.707-3.341-2.39-.745.834 2.557 3.263z"/><path d="M7.042 6.353s-.264-.616-1.064-.738c-.8-.123-1.205-.57-1.293-1.187-.088-.616-.007-1.267-.007-1.267S4 4.178 4.224 5.472c.222 1.295.907 2.25 1.279 2.353.374.102.712.034.712.034s1.363-.414.827-1.506z"/><linearGradient id="b" gradientUnits="userSpaceOnUse" x1="10.3" y1="10.783" x2="15.087" y2="15.571"><stop offset="0" stop-color="#74b739"/><stop offset="1" stop-color="#56991c"/></linearGradient><path fill="url(#b)" d="M14.906 15.75v-2.179l-3.6-3.796L9.403 11.9l4.613 3.92z"/><linearGradient id="c" gradientUnits="userSpaceOnUse" x1="8054.275" y1="-11512.394" x2="8429.275" y2="-11887.394" gradientTransform="matrix(.036 0 0 -.036 -288.624 -411.276)"><stop offset="0" stop-color="#ccc"/><stop offset="1" stop-color="#b3b3b3"/></linearGradient><path fill="url(#c)" d="M11.613 1.794L2.7 1.8v14.4h12.6V5.508l-3.687-3.714zm2.686 3.714h-2.671l-.011-2.689 2.682 2.689zm.281 9.972H3.42V2.52h7.38v3.852h3.78v9.108z"/></svg>