<?xml version="1.0" encoding="UTF-8"?><svg xmlns="http://www.w3.org/2000/svg" width="18" height="18" viewBox="0 0 18 18"><defs><linearGradient id="a" x1="23783.6" y1="-33989.28" x2="24158.6" y2="-34364.28" gradientTransform="matrix(.04 0 0 -.04 -854.88 -1220.44)" gradientUnits="userSpaceOnUse"><stop offset="0" stop-color="#ccc"/><stop offset="1" stop-color="#b3b3b3"/></linearGradient><linearGradient id="b" x1="26582.69" y1="-38048.92" x2="26833.62" y2="-38299.86" gradientTransform="matrix(.03 0 0 -.03 -847.54 -1210.84)" gradientUnits="userSpaceOnUse"><stop offset="0" stop-color="#196b99"/><stop offset="1" stop-color="#0d5c7f"/></linearGradient></defs><path d="M14.76 5.58v10.26H3.24V2.16h8.21z" fill="#fff"/><path d="M14.76 5.58v10.26H3.24V2.16h8.21z" fill="#f9fafa"/><path d="M11.23 2.34l.29 3.6 3.24-.36z" fill="#fff"/><path d="M11.61 1.79H2.7V16.2h12.6V5.51zm2.69 3.72h-2.67V2.82zm.28 10H3.42v-13h7.38v3.86h3.78z" fill="url(#a)"/><path d="M13.25 11.88a1.83 1.83 0 0 1-1.83 1.83H2.83A1.83 1.83 0 0 1 1 11.89v-2.3a1.83 1.83 0 0 1 1.83-1.83h8.59a1.83 1.83 0 0 1 1.83 1.83z" fill="url(#b)"/><path d="M3.84 9a1.41 1.41 0 0 1 .54.09 1 1 0 0 1 .36.24.94.94 0 0 1 .2.35 1.3 1.3 0 0 1 0 .81.94.94 0 0 1-.2.35 1 1 0 0 1-.36.25 1.42 1.42 0 0 1-.54.09h-.79v1.22h-.74V9zm-.2 1.6h.25a.56.56 0 0 0 .21-.07.4.4 0 0 0 .15-.15.65.65 0 0 0 0-.52.4.4 0 0 0-.15-.15.57.57 0 0 0-.21-.07h-.84v1zM6.22 9l1.42 2.28V9h.7v3.39h-.75l-1.41-2.23v2.27h-.7V9zM11 12.41a1.25 1.25 0 0 1-.49.1 1.73 1.73 0 0 1-.7-.14 1.5 1.5 0 0 1-.52-.37 1.66 1.66 0 0 1-.29-.56 2 2 0 0 1-.11-.69A2.11 2.11 0 0 1 9 10a1.71 1.71 0 0 1 .33-.57 1.5 1.5 0 0 1 .52-.38 1.72 1.72 0 0 1 .7-.14A1.65 1.65 0 0 1 11 9a1.43 1.43 0 0 1 .44.23 1.25 1.25 0 0 1 .33.38 1.27 1.27 0 0 1 .16.51h-.71a.71.71 0 0 0-.22-.39.75.75 0 0 0-.46-.14.88.88 0 0 0-.43.1.81.81 0 0 0-.29.26 1.15 1.15 0 0 0-.16.37 1.87 1.87 0 0 0 0 .43 1.72 1.72 0 0 0 0 .42 1.13 1.13 0 0 0 .16.36.82.82 0 0 0 .29.26.88.88 0 0 0 .43.1.73.73 0 0 0 .81-.73h-.75v-.56H12v1.83h-.47l-.08-.43a1.12 1.12 0 0 1-.45.41z" fill="#fff"/></svg>