<?xml version="1.0" encoding="UTF-8"?>
<svg xmlns="http://www.w3.org/2000/svg" width="18" height="18" viewBox="0 0 18 18"><path fill="#FFF" d="M14.76 5.58v10.26H3.24V2.16h8.208l3.312 3.42z"/><path fill="#F9FAFA" d="M14.76 5.58v10.26H3.24V2.16h8.208l3.312 3.42z"/><path fill="#FFF" d="M11.232 2.34l.287 3.6 3.234-.36-3.521-3.24z"/><linearGradient id="a" gradientUnits="userSpaceOnUse" x1="56158.355" y1="-80172.391" x2="56533.355" y2="-80547.391" gradientTransform="matrix(.036 0 0 -.036 -2020.371 -2883.036)"><stop offset="0" stop-color="#ccc"/><stop offset="1" stop-color="#b3b3b3"/></linearGradient><path fill="url(#a)" d="M11.613 1.794L2.7 1.8v14.4h12.6V5.508l-3.687-3.714zm2.686 3.714h-2.671l-.011-2.689 2.682 2.689zm.281 9.972H3.42V2.52h7.38v3.852h3.78v9.108z"/><linearGradient id="b" gradientUnits="userSpaceOnUse" x1="4.735" y1="6.243" x2="13.145" y2="14.653"><stop offset="0" stop-color="#196b99"/><stop offset="1" stop-color="#0d5c7f"/></linearGradient><path fill="url(#b)" d="M10.067 6.69v-.002a.594.594 0 0 0-.594-.594H5.13a.594.594 0 0 0-.594.594c0 .017.008.032.01.048v7.598h8.918V6.69h-3.397z"/><path fill="#FFF" d="M4.76 7.229h8.48v6.917H4.76z"/><linearGradient id="c" gradientUnits="userSpaceOnUse" x1="6.323" y1="6.063" x2="11.678" y2="11.418"><stop offset="0" stop-color="#ffad00"/><stop offset="1" stop-color="#d68900"/></linearGradient><path fill="url(#c)" d="M4.948 7.438h8.105v2.604H4.948z"/><linearGradient id="d" gradientUnits="userSpaceOnUse" x1="6.546" y1="9.731" x2="11.393" y2="14.578"><stop offset="0" stop-color="#ccc"/><stop offset="1" stop-color="#b3b3b3"/></linearGradient><path fill="url(#d)" d="M7.543 12.979H4.948v-1.651h2.596v1.651zm2.724-1.651H7.671v1.651h2.596v-1.651zm2.723 0h-2.597v1.651h2.597v-1.651z"/><linearGradient id="e" gradientUnits="userSpaceOnUse" x1="6.706" y1="11.148" x2="11.232" y2="15.675"><stop offset="0" stop-color="#ffad00"/><stop offset="1" stop-color="#d68900"/></linearGradient><path fill="url(#e)" d="M7.543 13.917H4.948v-1.011h2.596v1.011zm2.724-1.011H7.671v1.011h2.596v-1.011zm2.723 0h-2.597v1.011h2.597v-1.011z"/><linearGradient id="f" gradientUnits="userSpaceOnUse" x1="6.819" y1="8.468" x2="11.182" y2="12.831"><stop offset="0" stop-color="#5b5b5b"/><stop offset="1" stop-color="#3d3d3d"/></linearGradient><path fill="url(#f)" d="M4.948 10.339h8.105v.62H4.948z"/></svg>