<svg xmlns="http://www.w3.org/2000/svg" width="18" height="18"><defs><linearGradient id="a" x1="23783.6" y1="-33989.28" x2="24158.6" y2="-34364.28" gradientTransform="matrix(.04 0 0 -.04 -854.88 -1220.44)"><stop offset="0" stop-color="#ccc"/><stop offset="1" stop-color="#b3b3b3"/></linearGradient><linearGradient id="b" x1="26590.5" y1="-38041.11" x2="26857.06" y2="-38307.67" gradientTransform="matrix(.03 0 0 -.03 -847.54 -1210.84)"><stop offset="0" stop-color="#c9473d"/><stop offset="1" stop-color="#9e3939"/></linearGradient></defs><path d="M14.76 5.58v10.26H3.24V2.16h8.21z" fill="#fff"/><path d="M14.76 5.58v10.26H3.24V2.16h8.21z" fill="#f9fafa"/><path d="M11.23 2.34l.29 3.6 3.24-.36z" fill="#fff"/><path d="M11.61 1.79H2.7V16.2h12.6V5.51zm2.69 3.72h-2.67V2.82zm.28 10H3.42v-13h7.38v3.86h3.78z" fill="url(#a)"/><path d="M14.25 11.88a1.83 1.83 0 0 1-1.83 1.83H2.83A1.83 1.83 0 0 1 1 11.89v-2.3a1.83 1.83 0 0 1 1.83-1.83h9.59a1.83 1.83 0 0 1 1.83 1.83z" fill="url(#b)"/><path d="M4.62 12.43h-.55l-.62-2-.62 2h-.56l-.9-3.38h.69l.52 2.13.62-2.13h.49l.62 2.13.53-2.13h.69zm3.09-.34a1.22 1.22 0 0 1-.91.37 1.23 1.23 0 0 1-.92-.37c-.34-.34-.33-.76-.33-1.35s0-1 .33-1.35A1.23 1.23 0 0 1 6.8 9a1.22 1.22 0 0 1 .91.37c.34.34.34.76.34 1.35s0 1.03-.34 1.37zm-.49-2.3a.55.55 0 0 0-.42-.18.56.56 0 0 0-.43.18c-.13.14-.16.3-.16.95s0 .81.16.95a.56.56 0 0 0 .43.18.55.55 0 0 0 .42-.18c.13-.14.17-.3.17-.95s-.04-.8-.17-.95zm3.06 2.64l-.66-1.35h-.47v1.35h-.66V9.05h1.32a1 1 0 0 1 1.1 1 .91.91 0 0 1-.62.89l.71 1.49zm-.51-2.79h-.62v.89h.62a.45.45 0 1 0 0-.89zm3.7 2.47a1.23 1.23 0 0 1-.89.32h-1.22V9.05h1.22a1.23 1.23 0 0 1 .89.32 1.7 1.7 0 0 1 .34 1.35 1.76 1.76 0 0 1-.34 1.39zM13 9.85a.59.59 0 0 0-.49-.21H12v2.2h.5a.59.59 0 0 0 .49-.21c.12-.15.14-.39.14-.91s0-.72-.13-.87z" fill="#fff"/></svg>