<?xml version="1.0" encoding="UTF-8"?>
<svg xmlns="http://www.w3.org/2000/svg" width="18" height="18" viewBox="0 0 18 18"><path fill="#FFF" d="M14.76 5.58v10.26H3.24V2.16h8.208l3.312 3.42z"/><path fill="#F9FAFA" d="M14.76 5.58v10.26H3.24V2.16h8.208l3.312 3.42z"/><path fill="#FFF" d="M11.232 2.34l.287 3.6 3.237-.36-3.524-3.24z"/><linearGradient id="a" gradientUnits="userSpaceOnUse" x1="32106.313" y1="45861.395" x2="32481.313" y2="46236.391" gradientTransform="matrix(.036 0 0 .036 -1154.497 -1647.84)"><stop offset="0" stop-color="#ccc"/><stop offset="1" stop-color="#b3b3b3"/></linearGradient><path fill="url(#a)" d="M11.613 1.794L2.7 1.8v14.4h12.6V5.508l-3.687-3.714zm2.686 3.714h-2.671l-.011-2.689 2.682 2.689zm.281 9.972H3.42V2.52h7.38v3.852h3.78v9.108z"/><linearGradient id="b" gradientUnits="userSpaceOnUse" x1="5.71" y1="7.165" x2="10.621" y2="12.076"><stop offset="0" stop-color="#70a4c4"/><stop offset="1" stop-color="#527e93"/></linearGradient><path fill="url(#b)" d="M8.699 7.223c-.261.22-.669-.072-.582-.267.086-.196.552-.314.784.235.233.55-.284 1.634-.284 1.634.272-.583.343-1.823.082-1.602zM11 7.846c-.156.47.455.858.67.637.217-.221.125-.909-.738-.925-.862-.016-2.039 1.261-2.039 1.261.638-.678 2.259-1.443 2.107-.973zM9.547 9.289c-1.638.518-2.515 1.834-2.922 2.575-.408.738-.302 1.326.09 1.521.392.197 1.78-.016 2.006-.844.107-.395.081-.768.024-1.055 1.954 1.91 2.704-.939 4.211-1.747-.935-.704-2.294-.803-3.409-.45zm-1.595.176s.257-.648 0-1.402c-.257-.754-1.297-1.448-1.524-1.569-.226-.121.664.633.197 1.418-.468.784-.769 1.221-.573 1.553.195.332.286.407.286.407s-.573.228-.754.528-.588 1.357.256 1.07 1.675-.995 2.112-2.005z"/></svg>