<svg xmlns="http://www.w3.org/2000/svg" width="18" height="18" viewBox="0 0 18 18"><path fill="#FFF" d="M14.76 5.58v10.26H3.24V2.16h8.208l3.312 3.42z"/><path fill="#F9FAFA" d="M14.76 5.58v10.26H3.24V2.16h8.208l3.312 3.42z"/><path fill="#FFF" d="M11.232 2.34l.287 3.6 3.237-.36-3.524-3.24z"/><linearGradient id="a" gradientUnits="userSpaceOnUse" x1="32106.313" y1="45861.395" x2="32481.313" y2="46236.391" gradientTransform="matrix(.036 0 0 .036 -1154.497 -1647.84)"><stop offset="0" stop-color="#ccc"/><stop offset="1" stop-color="#b3b3b3"/></linearGradient><path fill="url(#a)" d="M11.613 1.794L2.7 1.8v14.4h12.6V5.508l-3.687-3.714zm2.686 3.714h-2.671l-.011-2.689 2.682 2.689zm.281 9.972H3.42V2.52h7.38v3.852h3.78v9.108z"/><linearGradient id="b" gradientUnits="userSpaceOnUse" x1="1" y1="5.834" x2="11" y2="15.834"><stop offset="0" stop-color="#5b5b5b"/><stop offset="1" stop-color="#3d3d3d"/></linearGradient><path fill="url(#b)" d="M0 6.833v8h12v-8H0zm1.729 6.835a.5.5 0 0 1-1 0v-.5a.5.5 0 1 1 1 0v.5zm0-2.521a.5.5 0 0 1-1 0v-.5a.5.5 0 1 1 1 0v.5zm0-2.521a.5.5 0 0 1-1 0v-.5a.5.5 0 1 1 1 0v.5zm9.542 5.042a.5.5 0 0 1-1 0v-.5a.5.5 0 1 1 1 0v.5zm0-2.521a.5.5 0 0 1-1 0v-.5a.5.5 0 1 1 1 0v.5zm0-2.521a.5.5 0 0 1-1 0v-.5a.5.5 0 1 1 1 0v.5z"/><g><linearGradient id="c" gradientUnits="userSpaceOnUse" x1="2.251" y1="7.085" x2="9.75" y2="14.584"><stop offset="0" stop-color="#7aa8d9"/><stop offset="1" stop-color="#335f7f"/></linearGradient><path fill="url(#c)" d="M2.5 6.833h7v8h-7z"/><linearGradient id="d" gradientUnits="userSpaceOnUse" x1="4.712" y1="10.901" x2="7.694" y2="13.883"><stop offset="0" stop-color="#ccc"/><stop offset="1" stop-color="#b3b3b3"/></linearGradient><path fill="url(#d)" d="M9.5 10.401l-1.042.799-1.426-1.657-1.958 3.319-1.467-.735-1.107.985v.866l1.269-.243 1.225.442 1.1-.389.898-1.561 1.059.684.615-.144.834-.691z"/><g><linearGradient id="e" gradientUnits="userSpaceOnUse" x1="4.512" y1="11.968" x2="8.439" y2="15.895"><stop offset="0" stop-color="#74b739"/><stop offset="1" stop-color="#56991c"/></linearGradient><path fill="url(#e)" d="M9.5 12.078l-.834.687-.614.145-1.059-.683-.899 1.561-1.098.392-1.225-.442-1.271.241v.855h7z"/></g><g><linearGradient id="f" gradientUnits="userSpaceOnUse" x1="1.992" y1="8.131" x2="4.064" y2="10.203"><stop offset=".236" stop-color="#f2da00"/><stop offset="1" stop-color="#ffbd00"/></linearGradient><path fill="url(#f)" d="M2.855 7.58a1.59 1.59 0 0 0-.355.043v3.087c.114.026.232.043.355.043a1.585 1.585 0 1 0 0-3.173z"/></g></g></svg>