<?xml version="1.0" encoding="UTF-8"?>
<svg xmlns="http://www.w3.org/2000/svg" width="18" height="18" viewBox="0 0 18 18"><path fill="#FFF" d="M14.76 5.58v10.26H3.24V2.16h8.208l3.312 3.42z"/><path fill="#F9FAFA" d="M14.76 5.58v10.26H3.24V2.16h8.208l3.312 3.42z"/><path fill="#FFF" d="M11.232 2.34l.287 3.6 3.239-.36-3.526-3.24z"/><linearGradient id="a" gradientUnits="userSpaceOnUse" x1="16071.625" y1="22974.742" x2="16446.627" y2="23349.744" gradientTransform="matrix(.036 0 0 .036 -577.248 -823.92)"><stop offset="0" stop-color="#ccc"/><stop offset="1" stop-color="#b3b3b3"/></linearGradient><path fill="url(#a)" d="M11.613 1.794L2.7 1.8v14.4h12.6V5.508l-3.687-3.714zm2.686 3.714h-2.671l-.011-2.689 2.682 2.689zm.281 9.972H3.42V2.52h7.38v3.852h3.78v9.108z"/><linearGradient id="b" gradientUnits="userSpaceOnUse" x1="2.103" y1="6.871" x2="8.359" y2="13.127"><stop offset="0" stop-color="#5cc3f3"/><stop offset="1" stop-color="#5aaaf1"/></linearGradient><path fill-rule="evenodd" clip-rule="evenodd" fill="url(#b)" d="M1.113 8.805A4.364 4.364 0 0 1 2.652 6.36a4.266 4.266 0 0 1 2.067-.92c.286-.046.598-.047.936-.046.046 0 .124-.05.185-.077.402-.176.839-.33 1.304-.445.522-.13 1.235-.183 1.745.01.479.182.808.541.808 1.191 0 .634-.209 1.1-.41 1.585.376.673.66 1.639.517 2.717H3.476c.015.517.193.913.461 1.207.268.294.613.516 1.043.624a2.25 2.25 0 0 0 1.412-.134 2.04 2.04 0 0 0 .879-.782h2.308c.004.037-.02.069-.031.103a4.397 4.397 0 0 1-2.21 2.403 4.395 4.395 0 0 1-1.949.436c-.76 0-1.391-.199-1.923-.456a7.04 7.04 0 0 1-1.365.527c-.252.064-.55.121-.834.112-.292-.008-.538-.069-.741-.199-.389-.248-.548-.745-.521-1.355.013-.294.05-.57.107-.839.057-.267.114-.517.205-.736.18-.435.401-.856.629-1.259a13.026 13.026 0 0 1 2.506-3.155c-.965.457-1.652 1.19-2.334 1.927.002.011-.02.011-.005.006zm8.285-2.021c.057-.25.095-.552.025-.808-.06-.225-.215-.388-.393-.511-.189-.13-.428-.187-.737-.169-.504.03-.896.218-1.273.389.945.373 1.642.994 2.163 1.79.078-.223.159-.443.215-.691zm-2.557 1.07c-.394-.358-1.126-.629-1.862-.457-.124.03-.242.07-.353.118-.632.273-1.097.827-1.161 1.653 1.323.008 2.682.008 4.005 0a1.856 1.856 0 0 0-.629-1.314zM.795 12.405c-.107.406-.164.986.066 1.299.232.313.666.419 1.162.338.441-.073.797-.246 1.141-.419-.215-.147-.427-.285-.619-.451a4.473 4.473 0 0 1-1.304-1.902c0-.003 0-.006-.005-.005-.166.35-.331.722-.441 1.14z"/></svg>