<svg xmlns="http://www.w3.org/2000/svg" width="18" height="18"><path fill="#FFF" d="M14.76 5.58v10.26H3.24V2.16h8.208l3.312 3.42z"/><path fill="#F9FAFA" d="M14.76 5.58v10.26H3.24V2.16h8.208l3.312 3.42z"/><path fill="#FFF" d="M11.232 2.34l.287 3.6 3.235-.36-3.522-3.24z"/><linearGradient id="a" x1="48141.004" y1="68748.055" x2="48516.004" y2="69123.055" gradientTransform="matrix(.036 0 0 .036 -1731.746 -2471.76)"><stop offset="0" stop-color="#ccc"/><stop offset="1" stop-color="#b3b3b3"/></linearGradient><path fill="url(#a)" d="M11.613 1.794L2.7 1.8v14.4h12.6V5.508l-3.687-3.714zm2.686 3.714h-2.671l-.011-2.689 2.682 2.689zm.281 9.972H3.42V2.52h7.38v3.852h3.78v9.108z"/><linearGradient id="b" x1="5.545" y1="10.271" x2="13.45" y2="10.271"><stop offset="0" stop-color="#c9473d"/><stop offset="1" stop-color="#9e3939"/></linearGradient><path fill="url(#b)" d="M6.324 14.684c-.353-.001-.635-.171-.738-.445-.096-.259-.072-.687.587-1.256.384-.331.979-.71 1.685-1.071a9.54 9.54 0 0 0 .392-1.062c.098-.339.196-.771.271-1.198-.753-1.29-1.116-2.909-.775-3.515.233-.415.738-.394 1.225.235.497.641.407 2.041.232 3.148a4.883 4.883 0 0 0 1.253 1.359c.767-.217 1.454-.327 2.045-.327l.188.003c.535.023.769.345.762.651-.01.454-.547.945-1.397.945-.534 0-1.121-.194-1.706-.562-.653.204-1.334.477-1.986.797a18.515 18.515 0 0 1-.751 1.492c-.289.49-.793.806-1.287.806zm-.126-.671c.006 0 .047.021.126.021.219 0 .528-.149.724-.481.052-.091.18-.321.337-.632-.319.194-.59.385-.786.555-.361.311-.409.503-.401.537-.001 0-.001 0 0 0zm5.09-2.669c.319.124.577.157.765.157.466 0 .691-.2.738-.287-.021.005-.063-.005-.13-.007l-.16-.004c-.362 0-.768.047-1.213.141zm-2.518.11l-.017.036c.302-.13.607-.25.91-.357l-.02-.013.052-.016a5.272 5.272 0 0 1-.644-.678l-.013.076-.021-.032a8.658 8.658 0 0 1-.288 1.004l.041-.02zm-.494-4.886c-.052.309.047 1.063.394 1.916.059-.833-.013-1.456-.213-1.714a1.766 1.766 0 0 0-.181-.202z"/><linearGradient id="c" x1="26868.66" y1="-38338.938" x2="27037.07" y2="-38507.348" gradientTransform="matrix(.032 0 0 -.032 -857.38 -1223.952)"><stop offset="0" stop-color="#c9473d"/><stop offset="1" stop-color="#9e3939"/></linearGradient><path fill="url(#c)" d="M9.222 6.357c0 .68-.551 1.229-1.229 1.229H2.229A1.228 1.228 0 0 1 1 6.357V4.819c0-.679.55-1.229 1.229-1.229h5.764c.678 0 1.229.55 1.229 1.229v1.538z"/><path d="M1.937 6.773V4.354h.783c.297 0 .49.012.581.036a.645.645 0 0 1 .348.237.759.759 0 0 1 .141.472.787.787 0 0 1-.081.374.682.682 0 0 1-.459.353 2.795 2.795 0 0 1-.506.035h-.319v.913h-.488zm.488-2.009v.686h.267c.192 0 .321-.013.386-.038a.327.327 0 0 0 .154-.119.334.334 0 0 0 .054-.188.31.31 0 0 0-.077-.218.346.346 0 0 0-.197-.107 2.514 2.514 0 0 0-.351-.016h-.236zm1.763-.41h.894c.201 0 .354.016.46.046a.817.817 0 0 1 .364.222c.102.108.178.238.232.394a1.8 1.8 0 0 1 .078.57c0 .2-.024.372-.074.515-.06.176-.147.319-.259.428a.845.845 0 0 1-.343.193 1.478 1.478 0 0 1-.432.051h-.92V4.354zm.489.41v1.602h.365c.136 0 .235-.007.295-.023a.456.456 0 0 0 .197-.101.504.504 0 0 0 .128-.233c.034-.109.05-.256.05-.443s-.017-.33-.05-.43a.564.564 0 0 0-.138-.236.471.471 0 0 0-.226-.114 2.31 2.31 0 0 0-.402-.022h-.219zm1.957 2.009V4.354h1.658v.41h-1.17v.572h1.011v.41H7.122v1.028h-.488z" fill="#FFF"/></svg>