<svg xmlns="http://www.w3.org/2000/svg" width="20" height="20"><path fill="#FFF" d="M14.447 4.486v4.505H5.553V1.846h6.338l2.556 2.64z"/><path fill="#F9FAFA" d="M14.447 4.486v4.505H5.553V1.846h6.338l2.556 2.64zm-9.009 9.2h9.125v4.5H5.438z"/><linearGradient id="a" x1="44974.684" y1="-64271.051" x2="45194.18" y2="-64490.543" gradientTransform="matrix(.032 0 0 -.032 -1432.701 -2045.872)"><stop offset="0" stop-color="#7aa8d9"/><stop offset="1" stop-color="#335f7f"/></linearGradient><path fill="url(#a)" d="M6.202 11.088h7.597v6.451H6.202v-6.451z"/><linearGradient id="b" x1="44998.883" y1="-64320.148" x2="45049.492" y2="-64370.754" gradientTransform="matrix(.032 0 0 -.032 -1432.701 -2045.872)"><stop offset=".236" stop-color="#f2da00"/><stop offset="1" stop-color="#ffbd00"/></linearGradient><circle fill="url(#b)" cx="8.073" cy="13.183" r="1.146"/><linearGradient id="c" x1="45060.023" y1="-64387.578" x2="45139.387" y2="-64466.941" gradientTransform="matrix(.032 0 0 -.032 -1432.701 -2045.872)"><stop offset="0" stop-color="#ccc"/><stop offset="1" stop-color="#b3b3b3"/></linearGradient><path fill="url(#c)" d="M9.617 16.799l.794-.281.649-1.127.764.494.445-.105.938-.775.588.029v-.521l-.853-.494-.825.633-1.029-1.195-1.414 2.396-1.06-.531-1.693 1.508 1.81-.348.886.317z"/><linearGradient id="d" x1="45044.664" y1="-64402.672" x2="45163.355" y2="-64521.367" gradientTransform="matrix(.032 0 0 -.032 -1432.701 -2045.872)"><stop offset="0" stop-color="#ccc"/><stop offset="1" stop-color="#b3b3b3"/></linearGradient><path fill="url(#d)" d="M13.799 17.539v-2.506l-.59-.027-.939.773-.444.104-.765-.492-.648 1.127-.793.283-.884-.318-1.813.344-.721.713h7.597z"/><linearGradient id="e" x1="45042.367" y1="-64400.379" x2="45167.008" y2="-64525.02" gradientTransform="matrix(.032 0 0 -.032 -1432.701 -2045.872)"><stop offset="0" stop-color="#74b739"/><stop offset="1" stop-color="#56991c"/></linearGradient><path fill="url(#e)" d="M13.799 17.539v-2.506l-.59-.027-.939.773-.444.104-.765-.492-.648 1.127-.793.283-.884-.318-1.813.344-.721.713h7.597z"/><linearGradient id="f" x1="290.576" y1="-394.749" x2="303.846" y2="-408.019" gradientTransform="matrix(1 0 0 -1 -287.66 -390.96)"><stop offset="0" stop-color="#ccc"/><stop offset="1" stop-color="#b3b3b3"/></linearGradient><path fill="url(#f)" d="M16.813 5.729h-1.948V4.431l-2.847-2.867-6.881.004v4.161H3.188a1 1 0 0 0-1 1v7.916c0 .555.447 1 1 1H5.19v2.791h9.619v-2.791h2.004c.553 0 1-.445 1-1V6.729a1 1 0 0 0-1-1zm-2.721-1.298h-2.063l-.008-2.076 2.071 2.076zM5.691 2.124h5.697v2.974h2.92v3.616H5.691v-6.59zm8.569 15.763H5.739v-3.953h8.521v3.953z"/><linearGradient id="g" x1="302.956" y1="-401.013" x2="304.024" y2="-402.08" gradientTransform="matrix(1 0 0 -1 -287.66 -390.96)"><stop offset="0" stop-color="#c9473d"/><stop offset="1" stop-color="#9e3939"/></linearGradient><circle fill="url(#g)" cx="15.829" cy="10.587" r=".755"/><linearGradient id="h" x1="300.978" y1="-401.013" x2="302.045" y2="-402.08" gradientTransform="matrix(1 0 0 -1 -287.66 -390.96)"><stop offset="0" stop-color="#74b739"/><stop offset="1" stop-color="#56991c"/></linearGradient><circle fill="url(#h)" cx="13.85" cy="10.587" r=".755"/></svg>