<svg xmlns="http://www.w3.org/2000/svg" width="20" height="20"><linearGradient id="a" x1="2.223" y1="1.748" x2="14.908" y2="14.432"><stop offset="0" stop-color="#55acee"/><stop offset="1" stop-color="#4797c9"/></linearGradient><path fill-rule="evenodd" clip-rule="evenodd" fill="url(#a)" d="M13.662 1.857h.387c.895.059 1.711.39 2.289.828.168.127.411.456.563.475.062.008.229-.058.353-.088.852-.209 1.584-.564 2.2-.88-.304.928-.92 1.648-1.638 2.148-.035.025-.115.027-.105.088A7.749 7.749 0 0 0 20 3.794c-.398.636-.904 1.18-1.479 1.672-.101.086-.534.376-.563.493-.029.114.018.32.018.476 0 2.424-.714 4.38-1.603 5.916-.994 1.718-2.241 3.078-3.908 4.102-1.684 1.033-3.65 1.69-6.32 1.69-2.568 0-4.516-.809-6.145-1.831 2.48.256 4.41-.51 5.793-1.496.078-.056.254-.187.229-.212-2.047-.154-3.238-1.257-3.785-2.852.553.112 1.355.1 1.813-.088C2.118 11.149.895 9.926.776 7.597c.511.27 1.083.478 1.831.511-.675-.499-1.339-1.266-1.638-2.254-.33-1.089-.112-2.45.387-3.24 1.97 2.291 4.502 4.02 8.486 4.296a4.148 4.148 0 0 1 .81-3.521c.678-.838 1.657-1.431 3.01-1.532z"/></svg>